v -4 10 -1    0.5 0.5 0.5
v -4 10  1    0.5 0.5 0.5
v -4 12 -1    0.5 0.5 0.5
v -4 12  1    0.5 0.5 0.5
v -3  0 -1    0.5 0.5 0.5
v -3  0  1    0.5 0.5 0.5
v -1  0 -1    0.5 0.5 0.5
v -1  0  1    0.5 0.5 0.5
v  2 10 -1    0.5 0.5 0.5
v  2 10  1    0.5 0.5 0.5
v  4 10 -1    0.5 0.5 0.5
v  4 10  1    0.5 0.5 0.5
v  4 12 -1    0.5 0.5 0.5
v  4 12  1    0.5 0.5 0.5


vt 0      0.625
vt 0      0.75
vt 0      0.875
vt 0      1
vt 0.0625 0
vt 0.0625 0.125
vt 0.125  0.75
vt 0.125  0.875
vt 0.1875 0
vt 0.1875 0.125
vt 0.3125 0.125
vt 0.375  0.625
vt 0.375  0.75
vt 0.5    0.75
vt 0.5    0.875
vt 0.5    1
vt 0.625  0.75
vt 0.625  0.875


vn -2  1  0
vn -1  0  0
vn  0 -1  0
vn  0  0 -1
vn  0  0  1
vn  0  1  0
vn  1  0  0
vn  2 -1  0


# front
f   4/3/5   2/2/5 12/14/5
f 12/14/5 14/15/5   4/3/5
f 10/13/5   6/6/5  8/10/5
f  8/10/5 12/14/5 10/13/5

# back
f 13/18/4 11/17/4   1/7/4
f   1/7/4   3/8/4 13/18/4
f 11/17/4  7/11/4  5/10/4
f  5/10/4  9/14/4 11/17/4

# top
f   3/4/6   4/3/6 14/15/6
f 14/15/6 13/16/6   3/4/6

# bottom
f   6/6/3   5/5/3   7/9/3
f   7/9/3  8/10/3   6/6/3
f   2/2/3   1/1/3  9/12/3
f  9/12/3 10/13/3   2/2/3

# left
f   3/8/2   1/7/2   2/2/2
f   2/2/2   4/3/2   3/8/2
f  9/14/1  5/10/1   6/6/1
f   6/6/1 10/13/1  9/14/1

# right
f 14/15/7 12/14/7 11/17/7
f 11/17/7 13/18/7 14/15/7
f 12/14/8  8/10/8  7/11/8
f  7/11/8 11/17/8 12/14/8