v -4  0 -1    0.5 0.5 0.5
v -4  0  1    0.5 0.5 0.5
v -4 12 -1    0.5 0.5 0.5
v -4 12  1    0.5 0.5 0.5
v -2  0 -1    0.5 0.5 0.5
v -2  0  1    0.5 0.5 0.5
v -2  2 -1    0.5 0.5 0.5
v -2  2  1    0.5 0.5 0.5
v -2  5 -1    0.5 0.5 0.5
v -2  5  1    0.5 0.5 0.5
v -2  7 -1    0.5 0.5 0.5
v -2  7  1    0.5 0.5 0.5
v -2 10 -1    0.5 0.5 0.5
v -2 10  1    0.5 0.5 0.5
v -2 12 -1    0.5 0.5 0.5
v -2 12  1    0.5 0.5 0.5
v  4  0 -1    0.5 0.5 0.5
v  4  0  1    0.5 0.5 0.5
v  4  2 -1    0.5 0.5 0.5
v  4  2  1    0.5 0.5 0.5
v  4  5 -1    0.5 0.5 0.5
v  4  5  1    0.5 0.5 0.5
v  4  7 -1    0.5 0.5 0.5
v  4  7  1    0.5 0.5 0.5
v  4 10 -1    0.5 0.5 0.5
v  4 10  1    0.5 0.5 0.5
v  4 12 -1    0.5 0.5 0.5
v  4 12  1    0.5 0.5 0.5


vt 0     0
vt 0     0.125
vt 0     0.875
vt 0     1
vt 0.125 0.125
vt 0.125 0.25
vt 0.125 0.3125
vt 0.125 0.375
vt 0.125 0.4375
vt 0.125 0.5625
vt 0.125 0.625
vt 0.125 0.6875
vt 0.125 0.75
vt 0.125 0.875
vt 0.25  0.125
vt 0.25  0.25
vt 0.25  0.4375
vt 0.25  0.5625
vt 0.25  0.75
vt 0.25  0.875
vt 0.5   0
vt 0.5   0.125
vt 0.5   0.25
vt 0.5   0.3125
vt 0.5   0.375
vt 0.5   0.4375
vt 0.5   0.5625
vt 0.5   0.625
vt 0.5   0.6875
vt 0.5   0.75
vt 0.5   0.875
vt 0.5   1
vt 0.625 0.125
vt 0.625 0.25
vt 0.625 0.4375
vt 0.625 0.5625
vt 0.625 0.75
vt 0.625 0.875


vn -1  0  0
vn  0 -1  0
vn  0  0 -1
vn  0  0  1
vn  0  1  0
vn  1  0  0


# front
f   4/3/4   2/2/4   6/5/4
f   6/5/4 16/14/4   4/3/4
f 16/14/4 14/13/4 26/30/4
f 26/30/4 28/31/4 16/14/4
f 12/10/4  10/9/4 22/26/4
f 22/26/4 24/27/4 12/10/4
f   8/6/4   6/5/4 18/22/4
f 18/22/4 20/23/4   8/6/4

# back
f 27/38/3 25/37/3 13/19/3
f 13/19/3 15/20/3 27/38/3
f 23/36/3 21/35/3  9/17/3
f  9/17/3 11/18/3 23/36/3
f 19/34/3 17/33/3  5/15/3
f  5/15/3  7/16/3 19/34/3
f 15/20/3  5/15/3   1/5/3
f   1/5/3  3/14/3 15/20/3

# top
f   3/4/5   4/3/5 28/31/5
f 28/31/5 27/32/5   3/4/5
f 11/12/5 12/10/5 24/27/5
f 24/27/5 23/29/5 11/12/5
f   7/8/5   8/6/5 20/23/5
f 20/23/5 19/25/5   7/8/5

# bottom
f   2/2/2   1/1/2 17/21/2
f 17/21/2 18/22/2   2/2/2
f  10/9/2   9/7/2 21/24/2
f 21/24/2 22/26/2  10/9/2
f 14/13/2 13/11/2 25/28/2
f 25/28/2 26/30/2 14/13/2

# left
f  3/14/1   1/5/1   2/2/1
f   2/2/1   4/3/1  3/14/1

# right
f 28/31/6 26/30/6 25/37/6
f 25/37/6 27/38/6 28/31/6
f 24/27/6 22/26/6 21/35/6
f 21/35/6 23/36/6 24/27/6
f 20/23/6 18/22/6 17/33/6
f 17/33/6 19/34/6 20/23/6
f 14/13/6   8/6/6  7/16/6
f  7/16/6 13/19/6 14/13/6