v -3  0 -1    0.5 0.5 0.5
v -3  0  1    0.5 0.5 0.5
v -3  2 -1    0.5 0.5 0.5
v -3  2  1    0.5 0.5 0.5
v -3 10 -1    0.5 0.5 0.5
v -3 10  1    0.5 0.5 0.5
v -3 12 -1    0.5 0.5 0.5
v -3 12  1    0.5 0.5 0.5
v -1  2 -1    0.5 0.5 0.5
v -1  2  1    0.5 0.5 0.5
v -1 10 -1    0.5 0.5 0.5
v -1 10  1    0.5 0.5 0.5
v  1  2 -1    0.5 0.5 0.5
v  1  2  1    0.5 0.5 0.5
v  1 10 -1    0.5 0.5 0.5
v  1 10  1    0.5 0.5 0.5
v  3  0 -1    0.5 0.5 0.5
v  3  0  1    0.5 0.5 0.5
v  3  2 -1    0.5 0.5 0.5
v  3  2  1    0.5 0.5 0.5
v  3 10 -1    0.5 0.5 0.5
v  3 10  1    0.5 0.5 0.5
v  3 12 -1    0.5 0.5 0.5
v  3 12  1    0.5 0.5 0.5


vt 0     0
vt 0     0.125
vt 0     0.25
vt 0     0.375
vt 0     0.625
vt 0     0.75
vt 0     0.875
vt 0     1
vt 0.125 0.125
vt 0.125 0.25
vt 0.125 0.75
vt 0.125 0.875
vt 0.25  0.25
vt 0.25  0.75
vt 0.375 0
vt 0.375 0.125
vt 0.375 0.25
vt 0.375 0.375
vt 0.375 0.625
vt 0.375 0.75
vt 0.375 0.875
vt 0.375 1
vt 0.5   0.125
vt 0.5   0.25
vt 0.5   0.75
vt 0.5   0.875


vn -1  0  0
vn  0 -1  0
vn  0  0 -1
vn  0  0  1
vn  0  1  0
vn  1  0  0


# front
f   8/7/4   6/6/4 22/20/4
f 22/20/4 24/21/4   8/7/4
f 12/11/4 10/10/4 14/13/4
f 14/13/4 16/14/4 12/11/4
f   4/3/4   2/2/4 18/16/4
f 18/16/4 20/17/4   4/3/4

# back
f 23/26/3 21/25/3  5/11/3
f  5/11/3  7/12/3 23/26/3
f 15/20/3 13/17/3  9/13/3
f  9/13/3 11/14/3 15/20/3
f 19/24/3 17/23/3   1/9/3
f   1/9/3  3/10/3 19/24/3

# top
f   7/8/5   8/7/5 24/21/5
f 24/21/5 23/22/5   7/8/5
f   3/4/5   4/3/5 20/17/5
f 20/17/5 19/18/5   3/4/5

# bottom
f   2/2/2   1/1/2 17/15/2
f 17/15/2 18/16/2   2/2/2
f   6/6/2   5/5/2 21/19/2
f 21/19/2 22/20/2   6/6/2

# left
f  7/12/1  5/11/1   6/6/1
f   6/6/1   8/7/1  7/12/1
f 11/14/1  9/13/1 10/10/1
f 10/10/1 12/11/1 11/14/1
f  3/10/1   1/9/1   2/2/1
f   2/2/1   4/3/1  3/10/1

# right
f 24/21/6 22/20/6 21/25/6
f 21/25/6 23/26/6 24/21/6
f 16/14/6 14/13/6 13/17/6
f 13/17/6 15/20/6 16/14/6
f 20/17/6 18/16/6 17/23/6
f 17/23/6 19/24/6 20/17/6