v -4  0 -1    0.5 0.5 0.5
v -4  0  1    0.5 0.5 0.5
v -4  2 -1    0.5 0.5 0.5
v -4  2  1    0.5 0.5 0.5
v -4 12 -1    0.5 0.5 0.5
v -4 12  1    0.5 0.5 0.5
v -2  2 -1    0.5 0.5 0.5
v -2  2  1    0.5 0.5 0.5
v -2 12 -1    0.5 0.5 0.5
v -2 12  1    0.5 0.5 0.5
v  4  0 -1    0.5 0.5 0.5
v  4  0  1    0.5 0.5 0.5
v  4  2 -1    0.5 0.5 0.5
v  4  2  1    0.5 0.5 0.5


vt 0     0
vt 0     0.125
vt 0     0.25
vt 0     0.875
vt 0     1
vt 0.125 0.125
vt 0.125 0.25
vt 0.125 0.375
vt 0.125 0.875
vt 0.125 1
vt 0.25  0.25
vt 0.25  0.875
vt 0.5   0
vt 0.5   0.125
vt 0.5   0.25
vt 0.5   0.375
vt 0.625 0.125
vt 0.625 0.25


vn -1  0  0
vn  0 -1  0
vn  0  0 -1
vn  0  0  1
vn  0  1  0
vn  1  0  0


# front
f   6/4/4   4/3/4   8/7/4
f   8/7/4  10/9/4   6/4/4
f   4/3/4   2/2/4 12/14/4
f 12/14/4 14/15/4   4/3/4

# back
f  9/12/3  7/11/3   3/7/3
f   3/7/3   5/9/3  9/12/3
f 13/18/3 11/17/3   1/6/3
f   1/6/3   3/7/3 13/18/3

# top
f   5/5/5   6/4/5  10/9/5
f  10/9/5  9/10/5   5/5/5
f   7/8/5   8/7/5 14/15/5
f 14/15/5 13/16/5   7/8/5

# bottom
f   2/2/2   1/1/2 11/13/2
f 11/13/2 12/14/2   2/2/2

# left
f   5/9/1   1/6/1   2/2/1
f   2/2/1   6/4/1   5/9/1

# right
f  10/9/6   8/7/6  7/11/6
f  7/11/6  9/12/6  10/9/6
f 14/15/6 12/14/6 11/17/6
f 11/17/6 13/18/6 14/15/6