v -4  0 -1    0.5 0.5 0.5
v -4  0  1    0.5 0.5 0.5
v -4 12 -1    0.5 0.5 0.5
v -4 12  1    0.5 0.5 0.5
v -2  0 -1    0.5 0.5 0.5
v -2  0  1    0.5 0.5 0.5
v -2  2 -1    0.5 0.5 0.5
v -2  2  1    0.5 0.5 0.5
v -2  5 -1    0.5 0.5 0.5
v -2  5  1    0.5 0.5 0.5
v -2  7 -1    0.5 0.5 0.5
v -2  7  1    0.5 0.5 0.5
v -2 10 -1    0.5 0.5 0.5
v -2 10  1    0.5 0.5 0.5
v -2 12 -1    0.5 0.5 0.5
v -2 12  1    0.5 0.5 0.5
v  2  0 -1    0.5 0.5 0.5
v  2  0  1    0.5 0.5 0.5
v  2  2 -1    0.5 0.5 0.5
v  2  2  1    0.5 0.5 0.5
v  2  5 -1    0.5 0.5 0.5
v  2  5  1    0.5 0.5 0.5
v  2  7 -1    0.5 0.5 0.5
v  2  7  1    0.5 0.5 0.5
v  2 10 -1    0.5 0.5 0.5
v  2 10  1    0.5 0.5 0.5
v  2 12 -1    0.5 0.5 0.5
v  2 12  1    0.5 0.5 0.5
v  4  0 -1    0.5 0.5 0.5
v  4  0  1    0.5 0.5 0.5
v  4 12 -1    0.5 0.5 0.5
v  4 12  1    0.5 0.5 0.5


vt 0     0
vt 0     0.125
vt 0     0.875
vt 0     1
vt 0.125 0.125
vt 0.125 0.25
vt 0.125 0.3125
vt 0.125 0.375
vt 0.125 0.4375
vt 0.125 0.5625
vt 0.125 0.625
vt 0.125 0.6875
vt 0.125 0.75
vt 0.125 0.875
vt 0.25  0.125
vt 0.25  0.25
vt 0.25  0.4375
vt 0.25  0.5625
vt 0.25  0.75
vt 0.25  0.875
vt 0.375 0.125
vt 0.375 0.25
vt 0.375 0.3125
vt 0.375 0.375
vt 0.375 0.4375
vt 0.375 0.5625
vt 0.375 0.625
vt 0.375 0.6875
vt 0.375 0.75
vt 0.375 0.875
vt 0.5   0
vt 0.5   0.125
vt 0.5   0.25
vt 0.5   0.4375
vt 0.5   0.5625
vt 0.5   0.75
vt 0.5   0.875
vt 0.5   1
vt 0.625 0.125
vt 0.625 0.875


vn -1  0  0
vn  0 -1  0
vn  0  0 -1
vn  0  0  1
vn  0  1  0
vn  1  0  0


# front
f   4/3/4   2/2/4   6/5/4
f   6/5/4 16/14/4   4/3/4
f 16/14/4 14/13/4 26/29/4
f 26/29/4 28/30/4 16/14/4
f 12/10/4  10/9/4 22/25/4
f 22/25/4 24/26/4 12/10/4
f   8/6/4   6/5/4 18/21/4
f 18/21/4 20/22/4   8/6/4
f 28/30/4 18/21/4 30/32/4
f 30/32/4 32/37/4 28/30/4

# back
f 31/40/3 29/39/3 17/32/3
f 17/32/3 27/37/3 31/40/3
f 27/37/3 25/36/3 13/19/3
f 13/19/3 15/20/3 27/37/3
f 23/35/3 21/34/3  9/17/3
f  9/17/3 11/18/3 23/35/3
f 19/33/3 17/32/3  5/15/3
f  5/15/3  7/16/3 19/33/3
f 15/20/3  5/15/3   1/5/3
f   1/5/3  3/14/3 15/20/3

# top
f   3/4/5   4/3/5 32/37/5
f 32/37/5 31/38/5   3/4/5
f 11/12/5 12/10/5 24/26/5
f 24/26/5 23/28/5 11/12/5
f   7/8/5   8/6/5 20/22/5
f 20/22/5 19/24/5   7/8/5

# bottom
f   2/2/2   1/1/2 29/31/2
f 29/31/2 30/32/2   2/2/2
f  10/9/2   9/7/2 21/23/2
f 21/23/2 22/25/2  10/9/2
f 14/13/2 13/11/2 25/27/2
f 25/27/2 26/29/2 14/13/2

# left
f  3/14/1   1/5/1   2/2/1
f   2/2/1   4/3/1  3/14/1
f 25/36/1 19/33/1 20/22/1
f 20/22/1 26/29/1 25/36/1

# right
f 32/37/6 30/32/6 29/39/6
f 29/39/6 31/40/6 32/37/6
f 14/13/6   8/6/6  7/16/6
f  7/16/6 13/19/6 14/13/6